HIERARCHY
ROOT Hips
{
	OFFSET 0.00000 0.00000 0.00000
	CHANNELS 6 Xposition Yposition Zposition Zrotation Yrotation Xrotation 
	JOINT LHipJoint
	{
		OFFSET 0 0 0
		CHANNELS 3 Zrotation Yrotation Xrotation
		JOINT LeftHip
		{
			OFFSET 1.56857 -1.73443 1.15205
			CHANNELS 3 Zrotation Yrotation Xrotation
			JOINT LeftKnee
			{
				OFFSET 2.39362 -6.57643 0.00000
				CHANNELS 3 Zrotation Yrotation Xrotation
				JOINT LeftAnkle
				{
					OFFSET 2.50952 -6.89485 0.00000
					CHANNELS 3 Zrotation Yrotation Xrotation
					JOINT LeftToe
					{
						OFFSET 0.17171 -0.47178 1.88682
						CHANNELS 3 Zrotation Yrotation Xrotation
						End Site
						{
							OFFSET 0.00000 -0.00000 0.98146
						}
					}
				}
			}
		}
	}
	JOINT RHipJoint
	{
		OFFSET 0 0 0
		CHANNELS 3 Zrotation Yrotation Xrotation
		JOINT RightHip
		{
			OFFSET -1.28153 -1.73443 1.15205
			CHANNELS 3 Zrotation Yrotation Xrotation
			JOINT RightKnee
			{
				OFFSET -2.26861 -6.23296 0.00000
				CHANNELS 3 Zrotation Yrotation Xrotation
				JOINT RightAnkle
				{
					OFFSET -2.54143 -6.98254 0.00000
					CHANNELS 3 Zrotation Yrotation Xrotation
					JOINT RightToe
					{
						OFFSET -0.23309 -0.64041 1.93119
						CHANNELS 3 Zrotation Yrotation Xrotation
						End Site
						{
							OFFSET -0.00000 -0.00000 1.02013
						}
					}
				}
			}
		}
	}
	JOINT lowerback
	{
		OFFSET 0 0 0
		CHANNELS 3 Zrotation Yrotation Xrotation
		JOINT Chest
		{
			OFFSET -0.07096 2.10460 -0.27878
			CHANNELS 3 Zrotation Yrotation Xrotation
			JOINT Chest2
			{
				OFFSET -0.00826 2.13662 -0.08279
				CHANNELS 3 Zrotation Yrotation Xrotation
				JOINT lowerneck
				{
					OFFSET 0 0 0
					CHANNELS 3 Zrotation Yrotation Xrotation
					JOINT Neck
					{
						OFFSET 0.03239 1.77799 0.24435
						CHANNELS 3 Zrotation Yrotation Xrotation
						JOINT Head
						{
							OFFSET 0.01026 1.74194 -0.49664
							CHANNELS 3 Zrotation Yrotation Xrotation
							End Site
							{
								OFFSET 0.00170 1.83057 -0.19653
							}
						}
					}
				}
				JOINT LeftCollar
				{
					OFFSET 0 0 0
					CHANNELS 3 Zrotation Yrotation Xrotation
					JOINT LeftShoulder
					{
						OFFSET 3.19178 1.35907 -0.31412
CHANNELS 3 Zrotation Xrotation Yrotation
						JOINT LeftElbow
						{
OFFSET 0 -4.852470 -0.000000
CHANNELS 3 Zrotation Xrotation Yrotation
							JOINT LeftWrist
							{
OFFSET 0 -3.555840 0.000000
CHANNELS 3 Zrotation Xrotation Yrotation
								JOINT lhand
								{
									OFFSET 0 0 0
CHANNELS 3 Zrotation Xrotation Yrotation
									JOINT LFingers
									{
OFFSET 0 -0.693200 0.000000
CHANNELS 3 Zrotation Xrotation Yrotation
										End Site
										{
OFFSET 0 -0.558880 0.000000
										}
									}
								}
								JOINT LThumb
								{
OFFSET 0 0.000000 0.000000
CHANNELS 3 Zrotation Xrotation Yrotation
									End Site
									{
OFFSET 0 -0.567410 0.567410
									}
								}
							}
						}
					}
				}
				JOINT RightCollar
				{
					OFFSET 0 0 0
					CHANNELS 3 Zrotation Yrotation Xrotation
					JOINT RightShoulder
					{
						OFFSET -3.28999 1.24191 -0.26899
CHANNELS 3 Zrotation Xrotation Yrotation
						JOINT RightElbow
						{
OFFSET 0 -4.644620 0.000000
CHANNELS 3 Zrotation Xrotation Yrotation
							JOINT RightWrist
							{
OFFSET 0 -3.407030 0.000000
CHANNELS 3 Zrotation Xrotation Yrotation
								JOINT rhand
								{
									OFFSET 0 0 0
CHANNELS 3 Zrotation Xrotation Yrotation
									JOINT RFingers
									{
OFFSET 0 -0.619580 0.000000
CHANNELS 3 Zrotation Xrotation Yrotation
										End Site
										{
OFFSET 0 -0.499520 0.000000
										}
									}
								}
								JOINT RThumb
								{
OFFSET 0 0.000000 0.000000
CHANNELS 3 Zrotation Xrotation Yrotation
									End Site
									{
OFFSET 0 -0.507150 0.507150
									}
								}
							}
						}
					}
				}
			}
		}
	}
}
MOTION
Frames: 10
Frame Time: .0083333
10.1607 16.8934 -0.4226 26.8840 67.9082 26.4093 0.0000 0.0000 0.0000 -33.4509 7.6359 1.3744 0.2437 3.1767 8.7710 0.7003 5.4617 -18.7251 0.0000 0.0000 0.0000 0.0000 0.0000 0.0000 -5.1071 4.0568 -7.5680 -1.2421 -7.0667 19.9132 -0.6677 4.0693 -14.5939 -0.0003 0.1195 -0.3282 -11.7439 1.0908 3.6605 -3.7534 1.5809 5.0641 2.6213 0.5534 3.0918 0.0512 -0.8279 -23.5186 1.3267 -1.4429 17.1022 0.2439 -0.5078 9.2521 -0.0000 0.0000 0.0000 15.1607 2.2898 -77.0584 92.9882 -59.9662 62.5875 10.9395 -18.0194 29.0616 0.0 0.0 0.0 -7.1250 0.0 0.0 -11.5308 0.9872 -11.5685 -0.0000 0.0000 0.0000 -10.9413 2.4516 72.2616 -98.8780 -59.7001 -67.6808 0.0 -11.5701 -0.0 0.0 0.0 0.0 0.0000 -0.0 0.0 0.0000 0.0 0.0
10.0427 16.9488 -0.3140 17.1076 66.5613 16.3070 0.0000 0.0000 0.0000 -28.7160 8.8095 1.8750 0.2292 3.0814 8.5055 0.6558 7.0061 -19.4227 0.0000 0.0000 0.0000 0.0000 0.0000 0.0000 -0.0641 9.1041 -6.4987 -1.3008 -7.2255 20.3850 -0.7351 2.1437 -15.6108 -0.0008 0.1852 -0.5088 -10.6035 2.2873 5.2360 -2.6261 2.8930 4.9996 3.0799 1.2612 1.9369 -0.0879 -0.9953 -23.1599 1.5670 -1.6741 16.9459 0.3176 -0.5993 9.1411 -0.0000 0.0000 0.0000 15.193 2.9046 -76.9149 93.5021 -59.9536 63.0325 10.635 -16.6225 29.4826 0.0 0.0 0.0 -7.1250 0.0 0.0 -11.7319 0.6136 -11.8578 -0.0000 0.0000 0.0000 -10.8093 2.3147 72.4281 -98.4057 -59.7313 -67.273 0.0 -11.615 -0.0 0.0 0.0 0.0 0.0000 -0.0 0.0 0.0000 0.0 0.0
10.0406 16.9470 -0.3110 17.0814 66.6427 16.2199 0.0000 0.0000 0.0000 -28.6166 8.7941 1.8882 0.2348 3.1184 8.6087 0.6624 6.9678 -19.4606 0.0000 0.0000 0.0000 0.0000 0.0000 0.0000 0.0206 9.0083 -6.4084 -1.3028 -7.2308 20.4010 -0.7549 2.2384 -15.8077 -0.0057 0.4858 -1.3347 -10.5270 2.3527 5.2934 -2.6883 2.9680 4.9230 2.9654 1.3093 1.8195 -0.0845 -1.0841 -22.5669 1.6969 -1.8178 16.7361 0.3436 -0.6558 8.9690 -0.0000 -0.0000 0.0000 15.4581 2.865 -77.0008 93.6613 -59.9493 63.1702 10.3151 -16.8395 29.6977 0.0 0.0 0.0 -7.1250 0.0 0.0 -11.9291 0.4444 -12.1021 -0.0000 -0.0000 0.0000 -10.673 2.6146 72.4768 -98.4793 -59.7266 -67.3366 0.0 -11.6154 -0.0 0.0 0.0 0.0 0.0000 -0.0 0.0 0.0000 0.0 0.0
10.0002 16.9148 -0.2928 18.2273 68.1027 17.9907 0.0000 0.0000 0.0000 -27.9687 9.3244 -0.3031 0.3374 3.7326 10.3255 0.6906 4.7154 -18.1124 0.0000 0.0000 0.0000 0.0000 0.0000 0.0000 0.4023 8.5320 -7.1558 -1.3462 -7.3455 20.7430 -0.7945 1.4105 -16.4224 -0.0099 0.6428 -1.7664 -10.7824 1.8581 5.1634 -2.6335 2.2948 4.6820 3.1968 0.9759 1.7157 0.0128 -1.0972 -22.3624 1.6118 -1.8460 16.6504 0.2954 -0.6742 8.9025 0.0000 -0.0000 0.0000 15.6128 2.7517 -76.8944 93.7570 -59.9466 63.253 9.9771 -16.4785 29.7858 0.0 0.0 0.0 -7.1250 0.0 0.0 -12.1285 0.4019 -12.3231 0.0000 -0.0000 0.0000 -10.6247 2.7822 72.5385 -98.5794 -59.72 -67.423 0.0 -11.5679 -0.0 0.0 0.0 0.0 0.0000 -0.0 0.0 0.0000 0.0 0.0
10.0078 16.9265 -0.2963 17.6607 67.6870 17.2642 0.0000 0.0000 0.0000 -28.0189 9.1178 0.2891 0.3089 3.5733 9.8793 0.6760 5.4482 -18.4594 0.0865 -1.8966 -5.2200 0.0000 0.0000 0.0000 0.4334 8.6121 -7.0220 -1.3534 -7.3644 20.7996 -0.7972 1.8534 -16.3438 -0.0217 0.9508 -2.6136 -10.7245 1.9821 5.0904 -2.5931 2.4894 4.8629 3.2032 1.0596 1.9217 0.3698 -1.2301 -22.4624 1.0359 -2.0170 16.3763 0.0161 -0.7999 8.8153 0.0000 -0.0000 0.0000 15.5251 2.6359 -76.5989 93.7159 -59.9478 63.2175 9.9769 -15.9171 29.9038 0.0 0.0 0.0 -7.1250 0.0 0.0 -12.1354 0.2864 -12.3554 0.0000 -0.0000 0.0000 -10.7233 2.5293 72.7553 -98.4229 -59.7302 -67.2878 0.0 -11.428 -0.0 0.0 0.0 0.0 0.0000 -0.0 0.0 0.0000 0.0 0.0
10.0135 16.9356 -0.2960 17.1410 67.6561 16.6635 0.0000 0.0000 0.0000 -27.9103 8.8525 0.6816 0.2953 3.4945 9.6585 0.6740 5.7669 -18.6664 0.0739 -1.7541 -4.8265 0.0000 0.0000 0.0000 0.6397 8.4678 -6.8420 -1.3580 -7.3765 20.8357 -0.8088 2.3671 -16.3555 -0.0290 1.1002 -3.0247 -10.6065 2.0152 5.0354 -2.5020 2.5537 4.9788 3.2344 1.0832 2.0654 1.1041 -1.8159 -22.4087 0.1382 -2.8558 15.7908 -0.5202 -1.2557 8.5806 0.0000 0.0000 0.0000 15.442 2.532 -76.4959 93.5661 -59.9519 63.0879 10.8332 -16.209 30.0854 0.0 0.0 0.0 -7.1250 0.0 0.0 -11.6549 -0.005 -11.9048 0.0000 0.0000 0.0000 -10.7572 2.3661 72.932 -98.0479 -59.7538 -66.9639 0.0 -11.0757 -0.0 0.0 0.0 0.0 0.0000 -0.0 0.0 0.0000 0.0 0.0
10.0169 16.9413 -0.2928 16.8326 67.5865 16.2659 0.0000 0.0000 0.0000 -27.8747 8.6765 0.9944 0.2863 3.4409 9.5089 0.6759 5.9998 -18.8575 0.0535 -1.4925 -4.1050 0.0000 0.0000 0.0000 0.7536 8.3908 -6.6813 -1.3549 -7.3685 20.8117 -0.8121 2.9334 -16.2880 -0.0196 0.9029 -2.4818 -10.5569 2.1028 5.1056 -2.4646 2.6611 4.9855 3.2387 1.1392 2.0184 0.9288 -1.9835 -22.3243 0.2470 -3.0499 15.7977 -0.4804 -1.3459 8.5721 -0.0000 0.0000 0.0000 15.4829 2.5578 -76.6411 93.4961 -59.9538 63.0273 12.1606 -16.9797 30.2357 0.0 0.0 0.0 -7.1250 0.0 0.0 -10.9035 -0.3375 -11.1713 -0.0000 0.0000 0.0000 -10.7288 2.3947 73.0715 -97.6975 -59.7749 -66.6612 0.0 -10.911 -0.0 0.0 0.0 0.0 0.0000 -0.0 0.0 0.0000 0.0 0.0
10.0159 16.9465 -0.2886 16.4647 67.4670 15.8181 0.0000 0.0000 0.0000 -27.7793 8.5906 1.1906 0.2828 3.4199 9.4500 0.6816 6.2158 -19.0778 0.0475 -1.4065 -3.8680 0.0000 0.0000 0.0000 0.9099 8.3775 -6.6177 -1.3517 -7.3600 20.7863 -0.8020 3.2485 -16.1341 -0.0205 0.9234 -2.5380 -10.4788 2.2057 5.2008 -2.4567 2.7868 4.9872 3.1943 1.2069 1.9520 0.5051 -2.0917 -21.9678 0.8253 -3.1756 15.5707 -0.2270 -1.3709 8.4516 0.0000 -0.0000 0.0000 15.6171 2.5194 -76.788 93.3787 -59.9568 62.9256 13.0223 -17.4964 30.3832 0.0 0.0 0.0 -7.1250 0.0 0.0 -10.4204 -0.6094 -10.7086 0.0000 -0.0000 0.0000 -10.7302 2.4682 73.2059 -97.7165 -59.7738 -66.6776 0.0 -11.0567 -0.0 0.0 0.0 0.0 0.0000 -0.0 0.0 0.0000 0.0 0.0
10.0174 16.9492 -0.2848 16.1983 67.7355 15.4834 0.0000 0.0000 0.0000 -27.5628 8.5165 1.2786 0.2868 3.4438 9.5169 0.6946 6.1428 -19.1580 0.0602 -1.5835 -4.3559 0.0000 0.0000 0.0000 1.1728 7.9713 -6.4951 -1.3506 -7.3570 20.7775 -0.8076 3.5198 -16.1560 -0.0280 1.0808 -2.9710 -10.2888 2.1791 5.2874 -2.4263 2.7496 5.0259 3.1208 1.1923 1.9533 0.3633 -2.1635 -21.7252 1.0441 -3.2683 15.3761 -0.1385 -1.4028 8.3510 -0.0000 -0.0000 0.0000 15.7239 2.3834 -76.8259 93.2787 -59.9593 62.8391 13.0998 -17.7665 30.5786 0.0 0.0 0.0 -7.1250 0.0 0.0 -10.3918 -0.8142 -10.7153 -0.0000 -0.0000 0.0000 -10.7162 2.5119 73.2341 -97.8630 -59.7651 -66.8042 0.0 -11.1197 -0.0 0.0 0.0 0.0 0.0000 -0.0 0.0 0.0000 0.0 0.0
10.0183 16.9506 -0.2773 16.1786 68.0614 15.4048 0.0000 0.0000 0.0000 -27.4123 8.4433 1.3643 0.2873 3.4471 9.5261 0.6912 6.0560 -19.0592 0.0757 -1.7749 -4.8841 0.0000 0.0000 0.0000 1.3485 7.5597 -6.3232 -1.3573 -7.3745 20.8296 -0.8314 3.9352 -16.3519 -0.0173 0.8498 -2.3356 -10.2148 2.1370 5.3401 -2.3915 2.6917 5.0533 3.1178 1.1641 1.9607 0.5370 -2.1810 -21.8131 0.8192 -3.3032 15.4966 -0.2489 -1.4314 8.3995 -0.0000 0.0000 0.0000 15.7444 2.3443 -76.7796 93.3693 -59.9571 62.9175 12.8589 -17.9882 30.7414 0.0 0.0 0.0 -7.1250 0.0 0.0 -10.5426 -0.9392 -10.8991 -0.0000 0.0000 0.0000 -10.6782 2.537 73.232 -97.8739 -59.7644 -66.8136 0.0 -11.049 -0.0 0.0 0.0 0.0 0.0000 -0.0 0.0 0.0000 0.0 0.0
